<svg width="166" height="18" viewBox="0 0 166 18" fill="none" xmlns="http://www.w3.org/2000/svg">
<g clip-path="url(#clip0_2562_3424)">
<path d="M6.11019 7.10171L10.1044 1.69946H12.1984V13.9246H9.65109V6.14756L6.08932 11.0146L2.54727 6.14756V13.9246H0V1.69946H2.46147L6.11019 7.10171ZM17.6813 1.69946H20.4013L24.8489 13.9246H22.2576L21.3938 11.456H16.5578L15.672 13.9246H13.1027L17.6813 1.69946ZM17.3138 9.31388H20.6599L18.9973 4.51688L17.3138 9.31388ZM33.5701 9.47645V1.69946H36.1174V13.9246H33.9365L33.9145 13.9008L28.3446 6.14631V13.9233H25.7973V1.69946H27.9991L33.569 9.47645H33.5701ZM37.4994 4.14423V1.69946H47.2143V4.14423H43.6525V13.9246H41.1053V4.14423H37.4994ZM48.5963 13.9246V1.69946H51.1436V13.9246H48.5963ZM66.3646 13.5294L67.6168 15.6478C65.8463 17.2547 63.5147 18 61.5066 18C56.368 18 53.1088 15.02 53.1088 9.50021C53.1088 4.84327 55.808 0 59.866 0C63.6654 0 66.1489 4.23802 66.1489 8.05711C66.1489 11.8762 64.4005 14.1809 60.9895 14.1809C60.1906 14.1809 59.1332 13.8545 58.528 13.3656L59.4776 11.2697C60.0387 11.5486 60.557 11.6649 61.0103 11.6649C62.8666 11.6649 63.6446 10.3381 63.6446 8.0321C63.6446 5.72614 62.1547 2.55982 59.866 2.55982C57.146 2.55982 55.6132 6.37891 55.6132 9.4752C55.6132 13.4343 57.7292 15.3902 61.4637 15.3902C63.3199 15.3902 64.8098 14.8087 66.3646 13.5269V13.5294ZM75.6493 1.69946H78.1966V8.6386C78.1966 11.316 76.5989 14.0171 73.058 14.0171C69.9495 14.0171 67.9843 11.9675 67.9843 8.6386V1.69946H70.5316V8.49854C70.5316 10.3843 71.4603 11.456 73.058 11.456C74.6557 11.456 75.6481 10.3618 75.6481 8.47603V1.69946H75.6493ZM88.9051 11.5261V13.9246H80.1177V1.69946H88.861V4.09796H82.5572V6.42643L87.6737 6.45019V8.87245H82.5572V11.5273H88.9051V11.5261ZM93.1149 1.69946V13.9246H90.5677V1.69946H93.1149ZM97.5405 9.57024V13.9246H95.1231V1.69946H100.197C102.831 1.69946 104.73 2.95748 104.73 5.70488C104.73 7.63693 103.456 9.17382 101.513 9.52397L102.614 10.6882C103.326 11.456 104.104 11.8524 104.903 11.8524H105.27V13.9708C105.055 14.0171 104.86 14.0171 104.557 14.0171C102.571 14.0171 101.319 12.7366 100.024 11.2697L98.5341 9.57024H97.5405ZM97.5405 4.00542V7.49812H100.455C101.557 7.49812 102.204 6.8466 102.204 5.75115C102.204 4.65569 101.556 4.00542 100.455 4.00542H97.5405ZM109.371 11.456L108.485 13.9246H105.916L110.494 1.69946H113.214L117.661 13.9246H115.07L114.206 11.456H109.37H109.371ZM111.811 4.51688L110.127 9.31388H113.473L111.811 4.51688Z" fill="#E4EE3C"/>
<path d="M127.853 7.48935C129.076 7.08543 129.8 6.25133 129.8 4.85075C129.8 2.77738 128.351 1.70068 126.03 1.70068H122.01V13.9245H126.804C129.375 13.9245 130.698 12.6853 130.698 10.747C130.698 8.80865 129.674 7.78447 127.852 7.4881L127.853 7.48935ZM123.184 2.88493H125.905C127.503 2.88493 128.526 3.45016 128.526 4.95829C128.526 6.38514 127.453 7.05917 125.78 7.05917H123.184V2.88493ZM126.68 12.7403H123.184V8.24341H126.304C128.276 8.24341 129.4 8.91619 129.4 10.6132C129.4 12.04 128.475 12.7403 126.678 12.7403H126.68Z" fill="#E4EE3C"/>
<path d="M136.665 4.36572C137.189 4.36572 137.638 4.50078 137.938 4.74338V6.03642C137.538 5.76756 137.214 5.60624 136.539 5.60624C134.992 5.60624 134.342 7.78715 134.342 9.13271V13.926H133.094V6.65418C133.094 5.92637 132.918 5.46993 132.319 5.46993C131.994 5.46993 131.62 5.65876 131.345 5.84759V4.82466C131.694 4.5558 132.094 4.36697 132.694 4.36697C133.743 4.36697 134.166 5.01349 134.241 6.30528C134.666 5.1473 135.415 4.36697 136.663 4.36697L136.665 4.36572Z" fill="#E4EE3C"/>
<path d="M147.85 12.9555C147.276 12.9555 147.051 12.6329 147.051 11.7976V4.52704H145.828V5.63125C145.178 4.93096 144.205 4.36572 142.931 4.36572C140.36 4.36572 138.688 6.41282 138.688 9.26651C138.688 12.1202 140.361 14.1135 142.931 14.1135C144.204 14.1135 145.254 13.467 145.902 12.6867C146.101 13.6021 146.651 14.1135 147.499 14.1135C148.049 14.1135 148.448 13.9522 148.798 13.7096V12.6592C148.523 12.848 148.199 12.9555 147.85 12.9555ZM145.828 11.6363C145.278 12.2828 144.355 12.9018 143.206 12.9018C141.158 12.9018 139.935 11.4749 139.935 9.26651C139.935 7.05809 141.158 5.55122 143.206 5.55122C144.354 5.55122 145.278 6.19774 145.828 6.84425V11.6375V11.6363Z" fill="#E4EE3C"/>
<path d="M154.065 8.80882C155.514 9.21274 156.337 10.0743 156.337 11.4212C156.337 13.0093 155.064 14.1135 152.916 14.1135C151.568 14.1135 150.52 13.7359 149.871 13.387V12.1752C150.52 12.5254 151.568 12.9555 152.867 12.9555C154.364 12.9555 155.138 12.4166 155.138 11.5012C155.138 10.5858 154.464 10.2632 153.49 9.99307L151.942 9.56289C150.52 9.15897 149.646 8.43117 149.646 7.03183C149.646 5.44367 150.844 4.36572 153.09 4.36572C154.214 4.36572 155.212 4.71587 155.837 5.06601V6.25026C155.138 5.8726 154.04 5.52245 153.04 5.52245C151.592 5.52245 150.893 5.98014 150.893 6.9493C150.893 7.81091 151.417 8.05351 152.441 8.34988L154.064 8.80757L154.065 8.80882Z" fill="#E4EE3C"/>
<path d="M158.634 3.20759C158.135 3.20759 157.786 2.85745 157.786 2.34598C157.786 1.83452 158.135 1.48438 158.634 1.48438C159.134 1.48438 159.457 1.83452 159.457 2.34598C159.457 2.85745 159.107 3.20759 158.634 3.20759Z" fill="#E4EE3C"/>
<path d="M159.333 11.7974C159.333 12.6315 159.558 12.9554 160.132 12.9554C160.482 12.9554 160.806 12.8478 161.081 12.659V13.7094C160.732 13.952 160.332 14.1133 159.782 14.1133C158.708 14.1133 158.109 13.2793 158.109 11.8512V4.52686H159.332V11.7974H159.333Z" fill="#E4EE3C"/>
<path d="M163.527 11.7973C163.527 12.6314 163.752 12.9553 164.326 12.9553C164.676 12.9553 165 12.8478 165.274 12.6589V13.7094C164.924 13.952 164.525 14.1133 163.976 14.1133C162.902 14.1133 162.303 13.2792 162.303 11.8511V1.75439H163.526V11.7973H163.527Z" fill="#E4EE3C"/>
</g>
<defs>
<clipPath id="clip0_2562_3424">
<rect width="165.274" height="18" fill="white"/>
</clipPath>
</defs>
</svg>
